<svg xmlns="http://www.w3.org/2000/svg" xmlns:xlink="http://www.w3.org/1999/xlink" width="576" zoomAndPan="magnify" viewBox="0 0 432 287.999989" height="384" preserveAspectRatio="xMidYMid meet" version="1.0"><defs><g/><clipPath id="d4aa8cee9d"><path d="M 373.171875 176.558594 L 416.175781 176.558594 L 416.175781 244.902344 L 373.171875 244.902344 Z M 373.171875 176.558594 " clip-rule="nonzero"/></clipPath></defs><g fill="#ffffff" fill-opacity="1"><g transform="translate(78.766034, 242.210255)"><g><path d="M 23.65625 0.84375 C 18.175781 0.84375 13.8125 -0.269531 10.5625 -2.5 C 7.3125 -4.726562 5.429688 -7.878906 4.921875 -11.953125 L 15.765625 -11.953125 C 16.109375 -10.484375 16.984375 -9.335938 18.390625 -8.515625 C 19.804688 -7.703125 21.5625 -7.296875 23.65625 -7.296875 L 27.046875 -7.296875 C 29.703125 -7.296875 31.75 -7.816406 33.1875 -8.859375 C 34.632812 -9.910156 35.359375 -11.335938 35.359375 -13.140625 C 35.359375 -16.253906 32.957031 -18.148438 28.15625 -18.828125 L 21.53125 -19.59375 C 16.21875 -20.269531 12.289062 -21.738281 9.75 -24 C 7.207031 -26.257812 5.9375 -29.507812 5.9375 -33.75 C 5.9375 -38.15625 7.472656 -41.546875 10.546875 -43.921875 C 13.628906 -46.296875 18.054688 -47.484375 23.828125 -47.484375 L 27.296875 -47.484375 C 32.441406 -47.484375 36.582031 -46.394531 39.71875 -44.21875 C 42.863281 -42.039062 44.71875 -39.003906 45.28125 -35.109375 L 34.421875 -35.109375 C 34.140625 -36.410156 33.363281 -37.441406 32.09375 -38.203125 C 30.820312 -38.960938 29.222656 -39.34375 27.296875 -39.34375 L 23.828125 -39.34375 C 18.847656 -39.34375 16.359375 -37.59375 16.359375 -34.09375 C 16.359375 -31.09375 18.453125 -29.335938 22.640625 -28.828125 L 29.515625 -27.890625 C 35.046875 -27.210938 39.140625 -25.703125 41.796875 -23.359375 C 44.460938 -21.015625 45.796875 -17.722656 45.796875 -13.484375 C 45.796875 -8.898438 44.179688 -5.363281 40.953125 -2.875 C 37.734375 -0.394531 33.097656 0.84375 27.046875 0.84375 Z M 23.65625 0.84375 "/></g></g></g><g fill="#ffffff" fill-opacity="1"><g transform="translate(137.350673, 242.210255)"><g><path d="M 3.8125 -46.640625 L 16.703125 -46.640625 L 16.703125 -61.046875 L 27.296875 -61.046875 L 27.296875 -46.640625 L 45.03125 -46.640625 L 45.03125 -37.0625 L 27.296875 -37.0625 L 27.296875 -14.421875 C 27.296875 -12.941406 27.734375 -11.765625 28.609375 -10.890625 C 29.492188 -10.015625 30.726562 -9.578125 32.3125 -9.578125 L 44.171875 -9.578125 L 44.171875 0 L 31.546875 0 C 26.960938 0 23.34375 -1.296875 20.6875 -3.890625 C 18.03125 -6.492188 16.703125 -10.003906 16.703125 -14.421875 L 16.703125 -37.0625 L 3.8125 -37.0625 Z M 3.8125 -46.640625 "/></g></g></g><g fill="#ffffff" fill-opacity="1"><g transform="translate(195.935313, 242.210255)"><g><path d="M 4.328125 -13.0625 C 4.328125 -15.375 4.75 -17.445312 5.59375 -19.28125 C 6.445312 -21.125 7.660156 -22.695312 9.234375 -24 C 10.816406 -25.300781 12.722656 -26.300781 14.953125 -27 C 17.191406 -27.707031 19.695312 -28.0625 22.46875 -28.0625 L 34.171875 -28.0625 L 34.171875 -32.046875 C 34.171875 -34.203125 33.363281 -35.914062 31.75 -37.1875 C 30.144531 -38.457031 27.925781 -39.09375 25.09375 -39.09375 C 22.78125 -39.09375 20.832031 -38.664062 19.25 -37.8125 C 17.664062 -36.96875 16.648438 -35.8125 16.203125 -34.34375 L 5.765625 -34.34375 C 6.503906 -38.414062 8.597656 -41.625 12.046875 -43.96875 C 15.492188 -46.3125 19.84375 -47.484375 25.09375 -47.484375 C 28.09375 -47.484375 30.804688 -47.128906 33.234375 -46.421875 C 35.671875 -45.710938 37.734375 -44.691406 39.421875 -43.359375 C 41.117188 -42.035156 42.429688 -40.425781 43.359375 -38.53125 C 44.296875 -36.644531 44.765625 -34.539062 44.765625 -32.21875 L 44.765625 0 L 34.765625 0 L 34.765625 -9.15625 L 34.09375 -9.15625 C 33.519531 -6.101562 31.921875 -3.671875 29.296875 -1.859375 C 26.671875 -0.0546875 23.40625 0.84375 19.5 0.84375 C 14.863281 0.84375 11.175781 -0.410156 8.4375 -2.921875 C 5.695312 -5.441406 4.328125 -8.820312 4.328125 -13.0625 Z M 23.15625 -7.46875 C 26.375 -7.46875 29.015625 -8.242188 31.078125 -9.796875 C 33.140625 -11.347656 34.171875 -13.3125 34.171875 -15.6875 L 34.171875 -21.109375 L 22.5625 -21.109375 C 20.1875 -21.109375 18.316406 -20.515625 16.953125 -19.328125 C 15.597656 -18.140625 14.921875 -16.472656 14.921875 -14.328125 C 14.921875 -12.179688 15.640625 -10.5 17.078125 -9.28125 C 18.523438 -8.070312 20.550781 -7.46875 23.15625 -7.46875 Z M 23.15625 -7.46875 "/></g></g></g><g fill="#ffffff" fill-opacity="1"><g transform="translate(254.519952, 242.210255)"><g><path d="M 4.578125 -32.390625 L 4.578125 -41.96875 L 17.390625 -41.96875 L 17.390625 -48.59375 C 17.390625 -52.65625 18.726562 -55.890625 21.40625 -58.296875 C 24.09375 -60.703125 27.695312 -61.90625 32.21875 -61.90625 L 45.875 -61.90625 L 45.875 -52.578125 L 32.484375 -52.578125 C 31.117188 -52.578125 30.039062 -52.191406 29.25 -51.421875 C 28.457031 -50.660156 28.0625 -49.628906 28.0625 -48.328125 L 28.0625 -41.96875 L 45.875 -41.96875 L 45.875 -32.390625 L 28.0625 -32.390625 L 28.0625 0 L 17.390625 0 L 17.390625 -32.390625 Z M 4.578125 -32.390625 "/></g></g></g><g fill="#ffffff" fill-opacity="1"><g transform="translate(313.104591, 242.210255)"><g><path d="M 4.578125 -32.390625 L 4.578125 -41.96875 L 17.390625 -41.96875 L 17.390625 -48.59375 C 17.390625 -52.65625 18.726562 -55.890625 21.40625 -58.296875 C 24.09375 -60.703125 27.695312 -61.90625 32.21875 -61.90625 L 45.875 -61.90625 L 45.875 -52.578125 L 32.484375 -52.578125 C 31.117188 -52.578125 30.039062 -52.191406 29.25 -51.421875 C 28.457031 -50.660156 28.0625 -49.628906 28.0625 -48.328125 L 28.0625 -41.96875 L 45.875 -41.96875 L 45.875 -32.390625 L 28.0625 -32.390625 L 28.0625 0 L 17.390625 0 L 17.390625 -32.390625 Z M 4.578125 -32.390625 "/></g></g></g><g fill="#ffffff" fill-opacity="1"><g transform="translate(1.323072, 167.719202)"><g><path d="M 11.265625 -26.390625 L 54.265625 -45.515625 C 55.640625 -46.109375 56.992188 -46.578125 58.328125 -46.921875 C 59.671875 -47.265625 60.882812 -47.535156 61.96875 -47.734375 C 63.15625 -47.835938 64.34375 -47.9375 65.53125 -48.03125 L 65.53125 -49.21875 C 64.34375 -49.320312 63.15625 -49.519531 61.96875 -49.8125 C 60.882812 -50.007812 59.671875 -50.28125 58.328125 -50.625 C 56.992188 -50.96875 55.640625 -51.4375 54.265625 -52.03125 L 11.265625 -71.15625 L 11.265625 -88.5 L 77.6875 -58.109375 L 77.6875 -39.578125 L 11.265625 -9.1875 Z M 11.265625 -26.390625 "/></g></g></g><g clip-path="url(#d4aa8cee9d)"><path fill="#618375" d="M 373.171875 176.558594 L 416.175781 176.558594 L 416.175781 244.925781 L 373.171875 244.925781 Z M 373.171875 176.558594 " fill-opacity="1" fill-rule="nonzero"/></g><g fill="#ffffff" fill-opacity="1"><g transform="translate(81.188832, 171.081492)"><g><path d="M 3.8125 0 L 34.5625 -114.15625 L 61.359375 -114.15625 L 91.328125 0 L 70.875 0 L 64.046875 -28.703125 L 30.921875 -28.703125 L 24.09375 0 Z M 34.71875 -44.390625 L 60.25 -44.390625 L 50.578125 -85.140625 C 50.148438 -87.046875 49.75 -88.945312 49.375 -90.84375 C 49.007812 -92.75 48.722656 -94.441406 48.515625 -95.921875 C 48.304688 -97.609375 48.09375 -99.300781 47.875 -101 L 47.09375 -101 C 46.875 -99.300781 46.660156 -97.609375 46.453125 -95.921875 C 46.242188 -94.441406 45.976562 -92.75 45.65625 -90.84375 C 45.34375 -88.945312 44.921875 -87.046875 44.390625 -85.140625 Z M 34.71875 -44.390625 "/></g></g></g><g fill="#ffffff" fill-opacity="1"><g transform="translate(176.316184, 171.081492)"><g><path d="M 46.765625 -18.234375 C 52.472656 -18.234375 57.019531 -19.894531 60.40625 -23.21875 C 63.789062 -26.550781 65.484375 -30.914062 65.484375 -36.3125 L 65.484375 -78 C 65.484375 -83.394531 63.789062 -87.726562 60.40625 -91 C 57.019531 -94.28125 52.472656 -95.921875 46.765625 -95.921875 L 31.546875 -95.921875 L 31.546875 -18.234375 Z M 11.578125 0 L 11.578125 -114.15625 L 46.765625 -114.15625 C 52.578125 -114.15625 57.863281 -113.28125 62.625 -111.53125 C 67.382812 -109.789062 71.453125 -107.332031 74.828125 -104.15625 C 78.210938 -100.988281 80.828125 -97.1875 82.671875 -92.75 C 84.523438 -88.3125 85.453125 -83.394531 85.453125 -78 L 85.453125 -36.3125 C 85.453125 -30.914062 84.523438 -25.972656 82.671875 -21.484375 C 80.828125 -16.992188 78.210938 -13.160156 74.828125 -9.984375 C 71.453125 -6.816406 67.382812 -4.359375 62.625 -2.609375 C 57.863281 -0.867188 52.578125 0 46.765625 0 Z M 11.578125 0 "/></g></g></g><g fill="#ffffff" fill-opacity="1"><g transform="translate(271.443537, 171.081492)"><g><path d="M 8.71875 0 L 8.71875 -114.15625 L 32.1875 -114.15625 L 44.703125 -77.84375 C 45.128906 -76.6875 45.5 -75.421875 45.8125 -74.046875 C 46.132812 -72.671875 46.398438 -71.398438 46.609375 -70.234375 C 46.929688 -68.859375 47.195312 -67.535156 47.40625 -66.265625 L 48.515625 -66.265625 C 48.722656 -67.535156 48.988281 -68.859375 49.3125 -70.234375 C 49.625 -71.398438 49.9375 -72.671875 50.25 -74.046875 C 50.570312 -75.421875 50.945312 -76.6875 51.375 -77.84375 L 62.78125 -114.15625 L 86.5625 -114.15625 L 86.5625 0 L 68.8125 0 L 68.8125 -74.046875 C 68.8125 -76.472656 68.914062 -79.003906 69.125 -81.640625 C 69.332031 -84.285156 69.546875 -86.71875 69.765625 -88.9375 C 69.972656 -91.582031 70.234375 -94.175781 70.546875 -96.71875 L 69.125 -96.71875 C 68.59375 -94.28125 68.007812 -91.898438 67.375 -89.578125 C 66.851562 -87.566406 66.328125 -85.476562 65.796875 -83.3125 C 65.265625 -81.144531 64.738281 -79.164062 64.21875 -77.375 L 55.96875 -50.265625 L 39.484375 -50.265625 L 30.765625 -77.375 C 30.234375 -79.164062 29.703125 -81.144531 29.171875 -83.3125 C 28.640625 -85.476562 28.113281 -87.566406 27.59375 -89.578125 C 27.0625 -91.898438 26.582031 -94.28125 26.15625 -96.71875 L 24.578125 -96.71875 C 24.890625 -94.175781 25.207031 -91.582031 25.53125 -88.9375 C 25.738281 -86.71875 25.921875 -84.285156 26.078125 -81.640625 C 26.234375 -79.003906 26.3125 -76.472656 26.3125 -74.046875 L 26.3125 0 Z M 8.71875 0 "/></g></g></g></svg>